<svg height="479pt" viewBox="-55 0 479 479.76238" width="479pt" xmlns="http://www.w3.org/2000/svg" xmlns:xlink="http://www.w3.org/1999/xlink"><linearGradient id="lg1"><stop offset="0" stop-color="#fff200"/><stop offset="1" stop-color="#cd118c"/></linearGradient><linearGradient id="linear0" gradientUnits="userSpaceOnUse" x1="-114.843" x2="397.685" xlink:href="#lg1" y1="457.234" y2="-79.694"/><linearGradient id="linear1" gradientUnits="userSpaceOnUse" x1="-46.635" x2="465.885" xlink:href="#lg1" y1="522.338" y2="-14.598"/><path d="m192.382812 143.761719c0 4.417969-3.582031 8-8 8-4.417968 0-8-3.582031-8-8s3.582032-8 8-8c4.417969 0 8 3.582031 8 8zm0 0" fill="url(#linear0)"/><path d="m352.382812 463.761719v-32c0-4.417969-3.582031-8-8-8h-64v-24c0-4.417969-3.582031-8-8-8h-24v-16c0-4.417969-3.582031-8-8-8h-24v-169.382813l75.460938 75.519532c3.125 3.121093 8.1875 3.121093 11.3125 0l22.640625-22.640626c2.855469-2.851562 3.140625-7.382812.664063-10.566406l-79.199219-101.839844c-1.101563-1.417968-2.644531-2.421874-4.382813-2.855468l-22.53125-5.601563 94.167969-94.097656c3.125-3.121094 3.125-8.1875 0-11.308594l-22.636719-22.640625c-2.851562-2.855468-7.382812-3.140625-10.570312-.664062l-101.839844 79.199218c-1.417969 1.097657-2.421875 2.644532-2.855469 4.382813l-5.601562 22.527344-94.09375-94.167969c-3.125-3.121094-8.1875-3.121094-11.3125 0l-22.640625 22.640625c-2.855469 2.851563-3.140625 7.382813-.664063 10.570313l79.199219 101.839843c1.101562 1.414063 2.644531 2.421875 4.386719 2.855469l22.527343 5.597656-94.167968 94.097656c-3.125 3.125-3.125 8.1875 0 11.3125l22.640625 22.640626c2.851562 2.851562 7.378906 3.136718 10.566406.664062l64.929687-50.496094v132.414063h-24c-4.417968 0-8 3.582031-8 8v16h-24c-4.417968 0-8 3.582031-8 8v24h-64c-4.417968 0-8 3.582031-8 8v32h-16v16h368v-16zm-184-168h32v16h-32zm32-152c0 8.835937-7.164062 16-16 16-8.839843 0-16-7.164063-16-16 0-8.835938 7.160157-16 16-16 8.835938 0 16 7.164062 16 16zm-38.601562 22.632812c5.496094 5.441407 12.785156 8.695313 20.503906 9.160157l-5 20.152343-58.734375 45.65625-9.539062-22.242187zm135.726562 90.535157-25.597656-25.597657 20.238282-8.671875 17.335937 22.292969zm-15.527343-47.335938-22.238281 9.535156-52.730469-52.796875c5.441406-5.5 8.695312-12.785156 9.160156-20.503906l20.152344 5zm3.550781-190.945312 12 12-25.597656 25.601562-8.671875-20.261719zm-35.316406 27.515624 9.535156 22.261719-52.800781 52.730469c-5.496094-5.441406-12.785157-8.695312-20.503907-9.160156l5-20.152344zm-178.960938-15.570312 25.597656 25.601562-20.238281 8.671876-17.34375-22.28125zm15.527344 47.335938 22.265625-9.535157 52.726563 52.800781c-5.441407 5.496094-8.695313 12.785157-9.160157 20.503907l-20.152343-5zm-3.550781 190.945312-12-12 25.597656-25.601562 8.671875 20.242187zm106.085937-62.242188c1.417969-1.097656 2.421875-2.640624 2.855469-4.382812l5.601563-22.527344 2.640624 2.648438v97.390625h-32.03125v-56.863281zm-20.933594 121.128907h32v40h-32zm-32 56h96v8h-96zm-32 24h160v16h-160zm-72 56v-24h304v24zm0 0" fill="url(#linear1)"/></svg>